<?xml version="1.0" encoding="UTF-8"?>
<svg xmlns="http://www.w3.org/2000/svg" viewBox="0 0 512 512" width="512" height="512">
  <defs>
    
    <clipPath id="shape-clip">
      <rect x="0" y="0" width="512" height="512" rx="112.64" ry="112.64" />
    </clipPath>
  
  </defs>
  <g clip-path="url(#shape-clip)">
    <rect x="0" y="0" width="512" height="512" fill="#fbf9f6" />
    
    
    <svg
      x="71.68"
      y="71.68"
      width="368.64"
      height="368.64"
      viewBox="11.563 12 76.875 76"
      preserveAspectRatio="xMidYMid meet" stroke="none" fill="currentColor"
    >
      <path d="M27.989 74.621L27.989 74.621Q23.864 74.621 20.529 72.478Q17.193 70.335 15.260 66.194Q13.326 62.053 13.326 56.059L13.326 56.059Q13.326 49.903 15.324 45.778Q17.322 41.653 20.642 39.591Q23.961 37.528 27.957 37.528L27.957 37.528Q31.019 37.528 33.049 38.560Q35.079 39.591 36.336 41.105Q37.593 42.620 38.205 44.038L38.205 44.038L38.527 44.038L38.527 25.991L48.195 25.991L48.195 74.009L38.688 74.009L38.688 68.240L38.205 68.240Q37.561 69.690 36.288 71.157Q35.015 72.623 32.984 73.622Q30.954 74.621 27.989 74.621ZM30.986 66.854L30.986 66.854Q33.436 66.854 35.176 65.501Q36.916 64.147 37.818 61.714Q38.721 59.281 38.721 56.026L38.721 56.026Q38.721 52.739 37.834 50.338Q36.948 47.938 35.208 46.600Q33.468 45.263 30.986 45.263L30.986 45.263Q28.440 45.263 26.716 46.648Q24.992 48.034 24.122 50.451Q23.252 52.868 23.252 56.026L23.252 56.026Q23.252 59.185 24.138 61.634Q25.024 64.083 26.749 65.469Q28.473 66.854 30.986 66.854ZM70.754 74.718L70.754 74.718Q66.403 74.718 63.052 73.477Q59.700 72.236 57.573 69.868Q55.446 67.499 54.834 64.147L54.834 64.147L63.825 62.601Q64.534 65.114 66.307 66.371Q68.079 67.628 71.044 67.628L71.044 67.628Q73.815 67.628 75.411 66.581Q77.006 65.533 77.006 63.922L77.006 63.922Q77.006 62.504 75.862 61.602Q74.718 60.699 72.365 60.216L72.365 60.216L66.146 58.927Q60.925 57.863 58.347 55.301Q55.769 52.739 55.769 48.711L55.769 48.711Q55.769 45.230 57.670 42.733Q59.571 40.235 62.955 38.882Q66.339 37.528 70.915 37.528L70.915 37.528Q75.169 37.528 78.295 38.705Q81.421 39.881 83.354 42.040Q85.288 44.199 85.933 47.132L85.933 47.132L77.360 48.646Q76.813 46.810 75.250 45.633Q73.687 44.457 71.044 44.457L71.044 44.457Q68.659 44.457 67.048 45.456Q65.437 46.455 65.437 48.131L65.437 48.131Q65.437 49.484 66.484 50.419Q67.531 51.354 70.077 51.869L70.077 51.869L76.555 53.158Q81.775 54.222 84.321 56.623Q86.867 59.023 86.867 62.891L86.867 62.891Q86.867 66.436 84.805 69.094Q82.742 71.753 79.117 73.235Q75.491 74.718 70.754 74.718Z" fill="#1a1917"/>
    </svg>
  
  </g>
</svg>